<?xml version="1.0" standalone="no"?>
<!DOCTYPE svg PUBLIC "-//W3C//DTD SVG 20010904//EN"
 "http://www.w3.org/TR/2001/REC-SVG-20010904/DTD/svg10.dtd">
<svg version="1.0" xmlns="http://www.w3.org/2000/svg"
 width="152.000000pt" height="152.000000pt" viewBox="0 0 152.000000 152.000000"
 preserveAspectRatio="xMidYMid meet">
<metadata>
Created by potrace 1.14, written by Peter Selinger 2001-2017
</metadata>
<g transform="translate(0.000000,152.000000) scale(0.100000,-0.100000)"
fill="#000000" stroke="none">
<path d="M587 1499 c-243 -59 -457 -245 -535 -466 -10 -28 -26 -58 -36 -68
-16 -16 -17 -35 -15 -164 3 -157 19 -246 64 -348 38 -84 108 -184 172 -244 32
-29 57 -57 55 -61 -3 -10 26 -54 33 -50 3 1 12 2 20 2 13 0 12 -4 -4 -21 -24
-26 -18 -45 20 -64 23 -13 99 -15 446 -15 l418 0 1 23 c1 12 3 31 4 42 1 11
-1 35 -3 53 -5 31 0 39 62 100 116 115 177 226 218 397 2 11 6 64 9 118 9 221
-67 409 -228 570 -43 42 -82 77 -87 77 -5 0 -16 6 -23 14 -23 22 -159 84 -228
102 -95 25 -265 27 -363 3z"/>
</g>
</svg>
